<svg version="1.1" xmlns="http://www.w3.org/2000/svg" viewBox="0 0 1487.031130125909 493.06228720143963" width="1487.031130125909" height="493.06228720143963">
  <!-- svg-source:excalidraw -->
  
  <defs>
    <style class="style-fonts">
      
    </style>
    
  </defs>
  <rect x="0" y="0" width="1487.031130125909" height="493.06228720143963" fill="#ffffff"></rect><g stroke-linecap="round" transform="translate(1028.6245753901767 277.4315479035222) rotate(0 135.3646112146389 37.32296614216284)"><path d="M-1.82 -1.36 L272.04 1.16 L270.72 74.12 L0.4 76.13" stroke="none" stroke-width="0" fill="#a5d8ff"></path><path d="M0 0 C57.77 -0.88, 116.97 -1.22, 270.73 0 M0 0 C102.71 -1.65, 204.86 -1.78, 270.73 0 M270.73 0 C268.76 19.56, 269.02 34.85, 270.73 74.65 M270.73 0 C270.78 26.57, 270.49 51.96, 270.73 74.65 M270.73 74.65 C192.59 71.99, 114.97 73.14, 0 74.65 M270.73 74.65 C200.04 74.42, 130.01 74.25, 0 74.65 M0 74.65 C-0.76 55.55, 0.1 34.55, 0 0 M0 74.65 C-0.77 56.65, 0.38 37.07, 0 0" stroke="#1e1e1e" stroke-width="2" fill="none"></path></g><g transform="translate(1059.0184834798165 296.9585505040177) rotate(0 101.19921875 16.09999999999991)"><text x="0" y="23.660546874999998" font-family="Helvetica, Segoe UI Emoji" font-size="28px" fill="#1e1e1e" text-anchor="start" style="white-space: pre;" direction="ltr" dominant-baseline="alphabetic">0 6 10 20 20 26 </text></g><g stroke-linecap="round" transform="translate(10 10) rotate(0 733.5155650629545 29.721659908090714)"><path d="M1.14 -0.16 L1463.78 3.04 L1464.83 62.39 L-0.57 60.54" stroke="none" stroke-width="0" fill="#b2f2bb"></path><path d="M1.27 1.6 C367.38 8.48, 731.98 7.37, 1465.68 -0.92 M0.59 -0.41 C306.31 7.96, 613.07 8.24, 1467.52 0.61 M1464.9 -2.51 C1468.25 16.33, 1470.4 39.02, 1465.41 60.95 M1466.36 0.67 C1465.44 16.11, 1464.62 31.28, 1467 59.59 M1466.18 58.74 C1171.94 65.73, 874.31 63.13, -1.09 60.49 M1467.19 60.04 C942.2 56.15, 415.64 55.7, -0.14 59.37 M-0.89 61.7 C0.56 38.75, 0.01 26.68, 1.14 -3.07 M0.19 57.46 C1.52 46.17, 2.25 29.83, 0.42 0.52" stroke="#1e1e1e" stroke-width="2" fill="none"></path></g><g transform="translate(126.47694337260782 21.804720877537875) rotate(0 34.234375 16.09999999999991)"><text x="0" y="23.660546874999998" font-family="Helvetica, Segoe UI Emoji" font-size="28px" fill="#1e1e1e" text-anchor="start" style="white-space: pre;" direction="ltr" dominant-baseline="alphabetic">string</text></g><g transform="translate(627.859529234549 21.474951782860444) rotate(0 275.2080078125 16.09999999999991)"><text x="0" y="23.660546874999998" font-family="Helvetica, Segoe UI Emoji" font-size="28px" fill="#1e1e1e" text-anchor="start" style="white-space: pre;" direction="ltr" dominant-baseline="alphabetic">Physical layout - Variable-size Binary Layout</text></g><g stroke-linecap="round" transform="translate(53.389399572641196 136.78338466089372) rotate(0 115.17752649052022 173.13945127027296)"><path d="M-1.35 -1.68 L230 -0.19 L230.51 345.08 L-0.34 345.83" stroke="none" stroke-width="0" fill="#ffc9c9"></path><path d="M0 0 C68.04 0.34, 137.4 1.63, 230.36 0 M0 0 C53.64 1.4, 107.77 1.7, 230.36 0 M230.36 0 C232.5 124.92, 231.38 249.29, 230.36 346.28 M230.36 0 C228.35 110.84, 228.67 222.01, 230.36 346.28 M230.36 346.28 C175.35 344.86, 119.31 344.16, 0 346.28 M230.36 346.28 C168.71 346.01, 109.11 345.96, 0 346.28 M0 346.28 C-1.79 256.43, -2.76 169.83, 0 0 M0 346.28 C0.14 222.74, 0.49 98.06, 0 0" stroke="#1e1e1e" stroke-width="2" fill="none"></path></g><g stroke-linecap="round"><g transform="translate(54.345743203753045 197.64434327142953) rotate(0 114.22118285940815 0)"><path d="M0 0 C51.58 1.44, 105.15 2.38, 228.44 0 M0 0 C56.1 -0.2, 114.01 -0.25, 228.44 0" stroke="#1e1e1e" stroke-width="2" fill="none"></path></g></g><mask></mask><g transform="translate(112.99466043816119 150.65428083285406) rotate(0 56.806640625 16.09999999999991)"><text x="0" y="23.660546874999998" font-family="Helvetica, Segoe UI Emoji" font-size="28px" fill="#1e1e1e" text-anchor="start" style="white-space: pre;" direction="ltr" dominant-baseline="alphabetic">column 3</text></g><g transform="translate(116.59329325066119 223.13981771600993) rotate(0 51.9736328125 16.09999999999991)"><text x="0" y="23.660546874999998" font-family="Helvetica, Segoe UI Emoji" font-size="28px" fill="#1e1e1e" text-anchor="start" style="white-space: pre;" direction="ltr" dominant-baseline="alphabetic">"python"</text></g><g transform="translate(131.3794260631612 275.5343224158187) rotate(0 37.1875 16.09999999999991)"><text x="0" y="23.660546874999998" font-family="Helvetica, Segoe UI Emoji" font-size="28px" fill="#1e1e1e" text-anchor="start" style="white-space: pre;" direction="ltr" dominant-baseline="alphabetic">"data"</text></g><g transform="translate(89.76692301140338 327.9063249125411) rotate(0 79.2080078125 16.09999999999991)"><text x="0" y="23.660546874999998" font-family="Helvetica, Segoe UI Emoji" font-size="28px" fill="#1e1e1e" text-anchor="start" style="white-space: pre;" direction="ltr" dominant-baseline="alphabetic">"conference"</text></g><g transform="translate(121.62346318816117 428.86538486474865) rotate(0 48.08333333333326 16.09999999999991)"><text x="0" y="23.660546874999998" font-family="Helvetica, Segoe UI Emoji" font-size="28px" fill="#1e1e1e" text-anchor="start" style="white-space: pre;" direction="ltr" dominant-baseline="alphabetic">"raulcd"</text></g><g transform="translate(146.7739573131612 380.27832740926533) rotate(0 21.79296875 16.09999999999991)"><text x="0" y="23.660546874999998" font-family="Helvetica, Segoe UI Emoji" font-size="28px" fill="#1e1e1e" text-anchor="start" style="white-space: pre;" direction="ltr" dominant-baseline="alphabetic">null</text></g><g stroke-linecap="round" transform="translate(488.8656229108974 183.58958250516844) rotate(0 72.28797794313596 18.9832559125648)"><path d="M0 0 C0 0, 0 0, 0 0 M0 0 C0 0, 0 0, 0 0 M-1.5 5.28 C1.16 5.57, 1.99 4.33, 4.37 -0.94 M-0.32 6.42 C1.54 5.22, 2.81 2.1, 5.2 0.06 M0.8 9.28 C4.13 5.97, 5.63 5.26, 11.69 2.99 M-0.52 10.93 C1.65 7.78, 6.59 5.79, 9.59 0.91 M1.91 16.28 C0.52 17.28, 4.82 6.75, 15.96 3.18 M-0.35 16.89 C4.31 14.61, 6.79 9.25, 15.51 -1.09 M3.89 21.97 C4.08 22.01, 6.03 16.41, 18.78 0.05 M1.21 25.35 C5.16 14.77, 14.34 9.7, 20.59 -0.94 M-0.05 30.95 C9.18 17.91, 18.54 3.26, 26.85 2.53 M-1.29 29.35 C5.53 20.74, 14.73 13.61, 27.95 0.1 M2.89 34.77 C3.52 27.04, 19.34 20.67, 33.51 -2.24 M0.33 35.36 C6.86 28.33, 16.8 17.57, 31.87 0.18 M1.7 38.4 C16.68 22.97, 28.29 12.63, 40.23 3.36 M4.43 37.93 C12.61 30.06, 20.13 18.72, 34.99 0.34 M7.59 40.12 C13.44 28.53, 28.56 20.43, 40.38 2.95 M9.83 39.3 C15.94 31.87, 22.13 23.46, 44.29 -0.25 M13 38.67 C26.53 29.04, 33.77 17.3, 48.47 -2.38 M15.04 36.34 C23.82 26.68, 30.54 16.06, 48.65 -1.03 M20.81 36.78 C29.4 26.11, 44.27 13.31, 51.88 -2.54 M19.73 39.78 C31.58 24.38, 41.48 10.32, 54.81 -0.85 M26.79 34.15 C30.29 30.9, 44.38 23.35, 56.16 1.02 M23.45 39 C35.31 24.54, 47.53 10.73, 56.87 1.39 M32.85 38.96 C39.25 30.87, 46.19 17.8, 60.74 2.84 M31.11 37.25 C38.48 26.87, 48.21 13.29, 64.29 -2.13 M38.8 35.4 C42.93 24.14, 58.2 16.88, 72.19 -3.02 M37.01 38.91 C43.7 27.36, 53.72 18.8, 67.41 -0.82 M39.59 35.11 C55.13 19.05, 65.88 3.06, 71.96 0.44 M42.28 36.76 C53.87 22.76, 67.56 11.13, 73.44 1.53 M49.03 36.74 C61.59 23.87, 64.72 11.26, 77.66 0.73 M46.94 39.19 C60.21 24.33, 69.48 7.16, 79.95 2.02 M49.12 37.43 C54.58 32.38, 65.32 18.77, 86.78 3.32 M51.38 37.49 C59.11 30.27, 65.66 20.09, 86.88 -2.13 M53.72 40.27 C61.15 31.97, 70.94 22.87, 89.94 3.2 M56.35 37.08 C66.19 26.43, 79.99 14.18, 90.03 1.7 M65.82 41.86 C67.48 30.12, 76.09 17.9, 94.67 0.31 M60.46 36.76 C70.78 32.5, 75.5 22.12, 97.07 0.75 M69.34 39.79 C75.9 32.5, 84.18 19.45, 98.64 3.09 M68.21 35.95 C77.04 27.39, 83.66 18.38, 101.04 0.17 M74.31 36.11 C78.06 30.37, 89.1 19.3, 105.39 -4.02 M71.43 37.98 C83.87 22.64, 94.66 12.54, 104.36 -1.81 M76.64 36.88 C83.72 27.41, 98.06 17.9, 113.62 -1.13 M77.36 37.29 C85.96 28.11, 91.06 20.49, 112.29 1.47 M87.43 39.62 C98.16 19.12, 110.55 11.14, 116.25 3.4 M82.08 38.72 C90.8 29.12, 97.46 21.14, 116.32 1.04 M92.62 40.86 C101.31 24.36, 111.35 17.56, 124.99 -3.29 M90.54 36.73 C98.58 28.26, 104.67 20.02, 122.93 -0.21 M90.31 39.6 C102.46 26.91, 115.26 16.21, 130.82 1.16 M94.07 38.67 C103.49 25.1, 116.45 15.06, 126.37 0.04 M98.49 36.82 C105.04 33.34, 115.73 19.86, 135.13 2.58 M98.34 36.01 C106.33 28.42, 113.69 20.94, 132.01 -0.55 M104.3 38.99 C117.2 30.55, 123.34 14.08, 138.93 1.81 M104.93 39.62 C116.8 24.26, 127.59 13.05, 137.82 -1.68 M111.11 42.33 C115.71 29.8, 128.39 24.69, 142.64 -1.83 M110.59 39.74 C121.65 25.76, 132.07 11.52, 142.42 -1.14 M115.03 40.5 C126.1 25.92, 136.83 11.96, 148.68 3.96 M116.08 37.5 C122.14 30.19, 130.43 20.25, 143.9 3.4 M121.51 40.45 C128.39 34.11, 133.13 22.8, 141.85 6.74 M118.93 36.43 C130.56 29.24, 138.12 19.01, 144.43 8.39 M128.36 38.57 C133.21 31.79, 137.68 17.73, 145.17 17.73 M124.8 38.39 C131.86 28.74, 139.52 19.9, 146.42 16.67 M131.03 40.26 C138.35 31.47, 143.7 26, 146.45 17.94 M132.95 38.93 C135.03 32.98, 138.75 28.64, 147.27 23.19 M137.77 36.28 C138.42 34.46, 142.87 30.08, 147.53 27.8 M136.39 38.27 C139.13 34.96, 140.51 33.02, 145.82 28.25 M140.5 39.36 C143.42 36.02, 143.22 34.27, 145.61 33.98 M141.95 38.06 C142.14 36.99, 143.75 36.22, 146.11 33.78" stroke="#ffc9c9" stroke-width="0.5" fill="none"></path><path d="M-2.13 -2.51 C48.84 -3.11, 99 -0.15, 142.95 1.51 M-0.67 0.67 C38.03 -1.46, 76.12 -2.29, 144.55 0.14 M142.44 -1.76 C147.49 10.51, 144.42 11.7, 141.85 40.59 M144.98 1.49 C146.05 13.07, 143.22 25.52, 144.22 37.77 M143.68 40.22 C99.94 35.06, 54.9 41.29, 1.14 34.9 M144.77 35.98 C110.03 41.42, 75.3 39.66, 0.42 38.49 M3.04 35.76 C2.98 24.93, 1.13 10.34, 0.77 3.1 M1.08 37.05 C-1.57 27.5, -1.09 16.66, 0.64 -0.7" stroke="#e03131" stroke-width="1" fill="none"></path></g><g transform="translate(504.88710147718575 187.1712873184597) rotate(0 56.806640625 16.09999999999991)"><text x="0" y="23.660546874999998" font-family="Helvetica, Segoe UI Emoji" font-size="28px" fill="#1e1e1e" text-anchor="start" style="white-space: pre;" direction="ltr" dominant-baseline="alphabetic">column 3</text></g><g transform="translate(692.4202104344386 294.67178996233906) rotate(0 83.5419921875 16.09999999999991)"><text x="0" y="23.660546874999998" font-family="Helvetica, Segoe UI Emoji" font-size="28px" fill="#1e1e1e" text-anchor="start" style="white-space: pre;" direction="ltr" dominant-baseline="alphabetic">Offsets buffer</text></g><g transform="translate(691.9447904090703 402.01832033617575) rotate(0 81.2177734375 16.09999999999991)"><text x="0" y="23.660546874999998" font-family="Helvetica, Segoe UI Emoji" font-size="28px" fill="#1e1e1e" text-anchor="start" style="white-space: pre;" direction="ltr" dominant-baseline="alphabetic">Values buffer</text></g><g transform="translate(692.4202104344386 187.32525958850147) rotate(0 129.4521484375 16.09999999999991)"><text x="0" y="23.660546874999998" font-family="Helvetica, Segoe UI Emoji" font-size="28px" fill="#1e1e1e" text-anchor="start" style="white-space: pre;" direction="ltr" dominant-baseline="alphabetic">Validity bitmap buffer</text></g><g stroke-linecap="round" transform="translate(1029.4839503901767 172.47029485813528) rotate(0 96.17927140393363 35.2272375559121)"><path d="M0.57 -0.08 L190.73 1.52 L191.26 71.93 L-0.28 71" stroke="none" stroke-width="0" fill="#a5d8ff"></path><path d="M0 0 C66.06 0.46, 130.62 0.24, 192.36 0 M0 0 C58.77 0.76, 116.58 0.21, 192.36 0 M192.36 0 C193.62 25.64, 192.09 46.63, 192.36 70.45 M192.36 0 C192.82 16.07, 193.02 33.41, 192.36 70.45 M192.36 70.45 C118.81 68.8, 48.43 69.31, 0 70.45 M192.36 70.45 C146.74 69.99, 99.39 69.85, 0 70.45 M0 70.45 C-1.3 41.56, 1.29 14.92, 0 0 M0 70.45 C0.5 56.08, -0.11 42.44, 0 0" stroke="#1e1e1e" stroke-width="2" fill="none"></path></g><g transform="translate(1059.0184834798165 189.64703704196472) rotate(0 60.224609375 16.09999999999991)"><text x="0" y="23.660546874999998" font-family="Helvetica, Segoe UI Emoji" font-size="28px" fill="#1e1e1e" text-anchor="start" style="white-space: pre;" direction="ltr" dominant-baseline="alphabetic">00010111</text></g><g stroke-linecap="round"><g transform="translate(356.4527810856807 12.36900470704768) rotate(0 0 22.213424812065796)"><path d="M0.11 -1.71 C-0.57 11.8, 0.29 21.7, -0.96 45.3 M0.71 0.05 C-1.11 10.27, 0.46 22.49, 0 44.16" stroke="#1e1e1e" stroke-width="2" fill="none"></path></g></g><mask></mask><g stroke-linecap="round"><g transform="translate(309.06980107062736 172.90681259666417) rotate(0 83.65341128725731 17.02850240802786)"><path d="M-1.44 -0.06 C43.07 7.65, 83.6 22.02, 165.17 32.3" stroke="#e03131" stroke-width="2.5" fill="none" stroke-dasharray="8 10"></path></g><g transform="translate(309.06980107062736 172.90681259666417) rotate(0 83.65341128725731 17.02850240802786)"><path d="M139.91 37.04 C147.04 34.1, 152.21 35.72, 164.1 31.42" stroke="#e03131" stroke-width="2.5" fill="none"></path></g><g transform="translate(309.06980107062736 172.90681259666417) rotate(0 83.65341128725731 17.02850240802786)"><path d="M142.58 20.15 C149.04 21.5, 153.52 27.43, 164.1 31.42" stroke="#e03131" stroke-width="2.5" fill="none"></path></g></g><mask></mask><g stroke-linecap="round" transform="translate(1028.6245753901767 385.65451969891) rotate(0 200.63804871463913 34.28585676716284)"><path d="M-1.35 0.38 L402.82 -0.27 L403.27 67.29 L1.08 67.65" stroke="none" stroke-width="0" fill="#a5d8ff"></path><path d="M0 0 C86.07 -1.07, 171.43 0.53, 401.28 0 M0 0 C99.34 -1.83, 197.37 -2.24, 401.28 0 M401.28 0 C401.15 25.47, 403.16 51.62, 401.28 68.57 M401.28 0 C400.63 18.66, 400.89 36.9, 401.28 68.57 M401.28 68.57 C287.74 69.17, 174.08 70.93, 0 68.57 M401.28 68.57 C269.18 67.75, 137.72 66.77, 0 68.57 M0 68.57 C-0.91 45.32, 0.08 21.79, 0 0 M0 68.57 C0.01 49.01, 0.42 28.25, 0 0" stroke="#1e1e1e" stroke-width="2" fill="none"></path></g><g transform="translate(1059.0184834798165 404.2700639660725) rotate(0 176.63333129882812 16.09999999999991)"><text x="0" y="23.660546874999998" font-family="Helvetica, Segoe UI Emoji" font-size="28px" fill="#1e1e1e" text-anchor="start" style="white-space: pre;" direction="ltr" dominant-baseline="alphabetic">pythondataconferenceraulcd</text></g></svg>